<?xml version="1.0" encoding="utf-8" ?><svg xmlns="http://www.w3.org/2000/svg" xmlns:xlink="http://www.w3.org/1999/xlink" width="2673" height="1519" viewBox="0 0 2673 1519"><path fill="#FC0" d="M1198.13 664.207C1204.5 663.896 1211.64 664.01 1218.07 663.971C1221.5 711.289 1229.26 758.806 1233.07 807.589C1237.03 798.019 1240.39 777.826 1242.64 766.763C1246.66 746.562 1251 726.425 1255.65 706.358C1261.37 705.664 1268.58 705.7 1274.45 705.569C1281.31 733.312 1286.59 775.141 1294.67 799.165C1297.4 781.115 1298.95 761.616 1300.84 743.374C1303.56 717.118 1306.49 690.882 1309.63 664.673C1315.62 664.141 1322.75 664.085 1328.84 663.886L1328.59 674.676C1323.8 725.017 1318.1 775.266 1311.48 825.4C1302.68 826.2 1289.74 825.851 1280.93 825.133C1273.83 798.553 1269.73 767.105 1265.64 739.616C1258.92 760.754 1252.7 802.105 1247.85 825.769C1237.41 825.894 1226.96 825.845 1216.52 825.621C1210.31 787.125 1206.99 748.246 1202.01 709.584C1200.07 694.535 1198.24 679.398 1198.13 664.207Z"/><path fill="#FC0" d="M1635 659.523C1641.56 659.157 1648.28 659.41 1654.87 659.545C1655.65 679.008 1654.64 699.218 1657.53 718.483C1736.5 659.985 1722.86 784.6 1722.58 826.087L1700.92 825.806C1700.22 805.48 1700.04 785.139 1700.37 764.805C1699.17 730.671 1688.12 712.035 1657.91 742.604C1654.83 770.332 1655.71 797.246 1654.53 824.98C1646.76 825.567 1642.68 825.743 1634.81 825.375C1633.15 770.103 1633.21 714.792 1635 659.523Z"/><path fill="#FC0" d="M1478.19 670.004C1486.03 671.48 1483.22 700.014 1483.02 707.339C1495.52 708.04 1513.77 707.228 1526.35 706.714L1527.24 727.092C1514.59 727.93 1495.53 727.502 1482.51 727.585C1484.85 746.507 1482.24 766.935 1483.51 786.009C1485.14 810.584 1508.39 806.841 1525.67 804.817L1525.78 827.709C1511.71 828.47 1494.32 830.117 1481.13 824.88C1457.95 815.68 1460.73 789.532 1460.88 769.098C1460.98 755.28 1461.21 741.378 1461.39 727.521C1451.62 727.29 1441.84 727.214 1432.07 727.295C1431.84 720.754 1432.18 713.374 1432.33 706.77C1442.39 706.385 1451.13 707.947 1461.35 706.419L1461.41 672.864C1466.46 672.265 1473.07 670.903 1478.19 670.004Z"/><path fill="#FC0" d="M1584.11 704.108C1610.03 701.665 1619.68 707.242 1617.32 734.04C1600.58 728.497 1578.87 720.242 1566.59 738.844C1557.66 752.368 1558.1 766.075 1559.83 781.517C1564.13 819.88 1609.31 798.631 1616.93 803.722L1617.6 807.158C1617.61 812.56 1617.2 818.406 1616.92 823.835C1580.94 834.994 1541.39 826.642 1535.42 783.989C1530.16 746.271 1542.92 710.257 1584.11 704.108Z"/><path fill="#FC0" d="M1380.37 707.183C1384.69 706.7 1390.01 706.712 1394.45 706.607C1396.22 737.086 1393.04 774.101 1394.21 807.07C1404.9 806.807 1415.59 806.763 1426.29 806.936L1426.2 825.797C1402.54 826.267 1378.39 825.456 1354.42 825.868L1341.23 825.784L1341.18 807.11C1351.63 806.426 1362.94 806.074 1373.38 806.643C1374.37 780.222 1374.41 753.776 1373.5 727.353C1365.31 726.349 1349.88 727.333 1341.07 727.651L1341.19 707.438C1354.25 707.506 1367.31 707.421 1380.37 707.183Z"/><path fill="#FC0" d="M1376.41 656.516C1399.9 656.014 1403.63 672.028 1387.97 687.728C1380.38 690.389 1370.68 688.877 1369.3 679.326C1367.87 669.39 1370.76 664.338 1376.41 656.516Z"/><path fill="#FC0" d="M967.678 642.463C975.649 642.099 982.309 642.17 990.286 642.356L991.324 703.281C1017.09 683.516 1043.05 681.82 1056.9 715.921C1067.67 742.459 1065.24 770.689 1054.52 796.834C1033.66 830.095 999.704 824.668 967.781 813.814C967.034 797.72 967.592 778.686 967.495 762.207C967.172 722.293 967.233 682.376 967.678 642.463ZM989.576 798.728C999.367 801.191 1006.27 803.768 1016.23 801.224C1028.01 795.419 1034.66 789.717 1039.04 776.866C1046.07 756.278 1045.36 708.812 1013.31 711.704C984.414 727.306 986.802 742.619 988.593 772.871C989.09 781.263 989.474 790.289 989.576 798.728Z"/><path fill="#FC0" d="M815.597 647.351C822.309 646.986 830.059 647.192 836.855 647.211C836.596 652.64 836.168 658.06 835.57 663.463C830.661 714.023 820.824 768.536 811.851 818.565C801.407 818.658 790.963 818.601 780.52 818.394C773.239 788.46 770.581 751.531 761.333 722.968C757.463 734.37 754.661 751.659 752.487 763.816L742.767 818.555L710.884 818.548C706.209 793.356 703.376 767.802 699.666 742.417C695.106 711.221 687.926 678.845 687.827 647.343C693.875 647.062 700.818 647.201 706.94 647.177C715.529 697.023 720.428 745.977 728.612 795.101C732.37 781.553 735.197 760.782 737.751 746.328C741.452 725.858 745.689 705.491 750.454 685.243C758.894 684.856 764.37 684.743 772.784 685.248C783.158 711.467 786.053 756.529 795.669 786.716C803.33 742.248 808.592 692.869 815.597 647.351Z"/><path fill="#FC0" d="M896.249 690.013L897.277 689.987C942.932 689.076 943.692 728.593 943.795 763.474C922.166 766.158 891.81 763.552 868.818 764.964C877.147 808.68 903.064 800.045 937.557 794.468C939.914 801.268 939.193 809.067 938.938 816.237C935.339 817.171 931.727 818.064 928.105 818.913C909.094 823.311 887.055 824.895 869.811 813.883C840.458 795.136 838.958 742.098 856.357 715.028C865.798 700.34 879.531 693.415 896.249 690.013ZM868.745 746.565C880.933 746.883 893.125 746.965 905.315 746.811C911.611 746.747 918.36 746.866 924.562 746.031C921.268 725.035 918.869 708.685 891.855 711.456C873.456 721.139 870.742 725.867 868.745 746.565Z"/><path fill="#FC0" d="M1080.25 799.629L1181.4 799.629L1181.4 826.658L1080.25 826.658L1080.25 799.629Z"/><path fill="#FC0" d="M1770.57 500.39C1769.72 498.271 1769.75 499.305 1770.4 497.187C1773.35 495.801 1776.86 499.507 1778.98 501.554C1785.75 508.122 1792.24 515.13 1798.9 521.815C1804.47 526.285 1807.28 528.95 1812.14 534.152C1820.39 542.277 1828.59 550.453 1836.73 558.679L1837.9 559.515C1842.06 563.285 1846.3 566.671 1850.42 570.372C1853.8 573.411 1856.84 577.947 1860.34 580.967C1869.19 588.587 1881.25 598.754 1888.97 607.436C1892.4 610.889 1894.6 613.592 1897.67 617.411C1902.54 621.739 1907.24 628.895 1911.46 632.253C1925.86 643.719 1936.02 656.366 1948.11 669.844L1984.17 709.767C2009.23 737.979 2027.52 746.398 1986.3 776.91C1972.79 786.908 1957.17 803.486 1945.31 816.004C1943.99 817.537 1941.85 820.191 1940.51 821.551C1937.03 825.36 1931 832.946 1926.08 833.646C1923.86 834.498 1923.84 835.075 1922.42 837.528C1919.63 840.128 1916.36 841.599 1914.36 843.707C1912.36 847.642 1907.99 850.828 1904.49 853.499L1901.8 855.562L1898.46 858.883C1896.14 860.87 1893.36 863.078 1891.39 865.353C1888.26 868.212 1885.94 869.651 1883.21 872.011C1878.81 877.599 1869.62 885.168 1864.27 889.823L1836.73 913.678C1832.8 917.026 1817.64 931.896 1813.59 932.907L1812.19 932.414C1812.12 930.798 1812.19 931.07 1813.87 929.333C1823.14 919.727 1855.61 893.866 1861.14 883.759C1853.36 889.457 1850.54 893.651 1843.74 900.03C1836.15 907.153 1827.17 913.082 1818.88 919.236C1815.61 921.66 1810.96 927.464 1807.53 930.324C1802 934.944 1795.8 938.652 1789.7 942.462L1786.05 945.456C1782.08 949.094 1763.31 965.612 1759.1 965.759L1758.75 964.908C1759.56 963.102 1761.07 961.065 1762.59 959.853L1762.42 957.275C1759.68 955.745 1755.55 960.276 1753.41 962.183C1752.59 959.667 1753.36 960.417 1751.51 959.399C1747.5 960.486 1746.09 966.914 1743 965.584C1739.58 966.909 1739.16 968.009 1736.26 970.494C1735.23 969.738 1735.57 970.229 1735.2 969.039C1737.63 965.118 1742.71 961.081 1746 957.311C1753.87 948.3 1766.56 935.325 1773.04 925.652L1772.69 924.386C1769.64 927.303 1765.63 926.472 1763.52 929.447L1766.05 929.148C1764.83 931.119 1752.3 942.018 1749.81 943.978L1748.84 943.752L1748.52 942.507C1749.79 937.309 1754.09 936.987 1756.33 934.059C1761.92 926.735 1766.1 919.204 1772.59 912.36C1774.32 909.682 1783.68 900.365 1786.54 897.046C1799.12 882.3 1811.96 867.784 1825.06 853.502L1890.59 783.212C1898.22 775.005 1925.41 748.865 1928.12 739.599C1927.18 730.01 1908 711.92 1902.72 702.283C1901.98 700.932 1894.7 694.814 1892.96 692.893L1834.56 629.57C1818.22 611.784 1802.54 592.795 1786.96 574.076C1781.72 567.772 1768.99 556.239 1765.11 548.499C1763.97 546.216 1766.46 545.482 1763.6 540.669C1761.75 538.483 1760.01 536.207 1758.25 533.953C1760.99 531.779 1763.3 528.964 1765.59 526.315C1767.25 527.916 1769.37 529.645 1770.44 531.557C1770.95 531.729 1774.74 533.069 1774.93 533.333C1776.84 536.017 1781.59 545.263 1785.15 545.388C1785.85 542.965 1785.14 541.899 1783.94 539.758C1783.64 539.209 1783.32 538.664 1783 538.123C1779.79 534.574 1776.65 531.319 1774.02 527.298L1774.81 519.746C1774.22 518.053 1765.35 507.355 1763.63 505.213L1766.02 503.861C1764.7 500.738 1764.45 500.184 1764.13 496.839C1765.76 498.145 1768.82 500.933 1770.64 501.344L1770.57 500.39Z"/><path fill="#FC0" d="M1812.14 534.152C1820.39 542.277 1828.59 550.453 1836.73 558.679C1829.82 562.856 1828.26 560.689 1823.61 555.244C1820.27 549.9 1805.99 539.647 1805.17 535.846C1807.66 535.637 1809.74 534.874 1812.14 534.152Z"/><path fill="#FC0" d="M1770.57 500.39C1769.72 498.271 1769.75 499.305 1770.4 497.187C1773.35 495.801 1776.86 499.507 1778.98 501.554C1785.75 508.122 1792.24 515.13 1798.9 521.815C1798.38 522.848 1797.62 524.228 1797.18 525.257C1796.31 524.254 1795.72 523.693 1794.78 522.754C1790.69 522.955 1791.41 522.944 1789.56 519.471L1788.35 517.353C1783.93 512.897 1783.51 508.947 1775.96 507.124C1773.18 505.135 1771.98 504.303 1771.9 500.86L1770.57 500.39Z"/><path fill="#FC0" d="M1894.73 854.38C1894.73 853.521 1894.71 852.465 1895.47 851.88C1898.72 849.37 1908.44 839.448 1911.78 839.009C1912.06 840.494 1912.27 841.441 1912.68 842.896L1914.36 843.707C1912.36 847.642 1907.99 850.828 1904.49 853.499L1901.8 855.562L1898.46 858.883C1897.15 857.083 1896.23 856.037 1894.73 854.38Z"/><path fill="#FC0" d="M1901.8 855.562C1899.59 854.536 1900.36 855.282 1899.09 853.57C1898.92 850.551 1900.92 845.766 1904.56 847.802C1905.5 849.749 1904.9 851.294 1904.49 853.499L1901.8 855.562Z"/><path fill="#FC0" d="M1782.35 942.153C1780.63 941.562 1778.96 942.267 1776.94 942.69L1776.39 942.194L1777.58 940.12C1777.18 937.96 1776.63 936.564 1777.48 934.591C1778.78 933.235 1778.82 932.923 1780.66 932.568C1783.05 933.743 1782.74 934.268 1784.19 936.39C1786.5 933.74 1784.19 927.206 1789.19 926.508C1791.16 927.288 1791.04 927.2 1792.3 928.906C1792.93 931.58 1792.45 933.314 1792.05 936.034C1789.46 937.974 1785.99 939.17 1784.26 940.614L1784.16 941.03L1782.35 942.153Z"/><path fill="#FC0" d="M1784.16 941.03C1784.72 942.412 1785.36 944.176 1786.05 945.456C1782.08 949.094 1763.31 965.612 1759.1 965.759L1758.75 964.908C1759.56 963.102 1761.07 961.065 1762.59 959.853C1768.82 956.694 1778.3 947.942 1782.35 942.153L1784.16 941.03Z"/><path fill="#FC0" d="M1931.66 821.211C1935.33 820.477 1937 820.072 1940.51 821.551C1937.03 825.36 1931 832.946 1926.08 833.646C1922.73 829.641 1926.27 825.81 1929.05 822.863C1929.82 822.565 1930.93 821.712 1931.66 821.211Z"/><path fill="#FC0" d="M1764.13 496.839C1765.76 498.145 1768.82 500.933 1770.64 501.344L1770.57 500.39L1771.9 500.86C1771.98 504.303 1773.18 505.135 1775.96 507.124C1783.51 508.947 1783.93 512.897 1788.35 517.353C1787.64 517.612 1785.83 518.218 1785.28 518.551C1780.61 514.441 1779.45 512.871 1775.7 508.089C1770.29 508.372 1769.95 507.643 1766.02 503.861C1764.7 500.738 1764.45 500.184 1764.13 496.839Z"/><path fill="#FC0" d="M1772.59 912.36C1772.58 916.588 1756.35 932.591 1757.66 935.252C1759.51 934.602 1761.05 932.619 1762.46 931.119C1762.49 930.246 1762.3 928.347 1762.96 928.006C1768.55 925.099 1769.92 924.927 1774.46 920.56L1775.11 920.642C1774.07 924.634 1773.88 921.141 1772.69 924.386C1769.64 927.303 1765.63 926.472 1763.52 929.447L1766.05 929.148C1764.83 931.119 1752.3 942.018 1749.81 943.978L1748.84 943.752L1748.52 942.507C1749.79 937.309 1754.09 936.987 1756.33 934.059C1761.92 926.735 1766.1 919.204 1772.59 912.36Z"/><path fill="#FC0" d="M1765.59 526.315C1767.25 527.916 1769.37 529.645 1770.44 531.557C1768.92 532.707 1769.14 532.094 1768.65 533.467L1767.92 535.46C1766.66 538.931 1766.52 538.459 1763.6 540.669C1761.75 538.483 1760.01 536.207 1758.25 533.953C1760.99 531.779 1763.3 528.964 1765.59 526.315Z"/><path fill="#FC0" d="M1931.66 821.211C1930.16 818.567 1929.72 818.633 1929.85 816.011L1930.59 815.411C1935.86 820.4 1934.62 813.655 1939.47 812.267C1941.86 812.84 1943.35 814.407 1945.31 816.004C1943.99 817.537 1941.85 820.191 1940.51 821.551C1937 820.072 1935.33 820.477 1931.66 821.211Z"/><path fill="#FC0" d="M1883.54 861.192C1885.09 861.82 1886.01 862.397 1887.64 862.144C1889.84 863.473 1889.8 863.379 1891.39 865.353C1888.26 868.212 1885.94 869.651 1883.21 872.011C1882.77 869.604 1883.09 869.161 1881.76 867.545C1878.14 869.284 1872.13 875.42 1867.63 878.21C1871.61 873.016 1881.7 866.515 1883.54 861.192Z"/><path fill="#FC0" d="M1798.9 521.815C1804.47 526.285 1807.28 528.95 1812.14 534.152C1809.74 534.874 1807.66 535.637 1805.17 535.846C1804.62 534.445 1799.07 528.15 1797.18 525.257C1797.62 524.228 1798.38 522.848 1798.9 521.815Z"/><path fill="#FC0" d="M1922.42 837.528C1909.98 833.33 1923.19 825.155 1929.05 822.863C1926.27 825.81 1922.73 829.641 1926.08 833.646C1923.86 834.498 1923.84 835.075 1922.42 837.528Z"/><path fill="#FC0" d="M1837.9 559.515C1837.55 561.869 1837.42 562.989 1836.7 565.229C1835.02 566.873 1835.99 566.33 1833.64 566.853C1829.71 565.915 1823.7 558.993 1823.61 555.244C1828.26 560.689 1829.82 562.856 1836.73 558.679L1837.9 559.515Z"/><path fill="#FC0" d="M1774.81 519.746C1776.58 524.179 1776.17 525.28 1780.12 528.498C1783.33 531.117 1782.9 534.186 1783 538.123C1779.79 534.574 1776.65 531.319 1774.02 527.298L1774.81 519.746Z"/><path fill="#FC0" d="M1894.73 854.38C1896.23 856.037 1897.15 857.083 1898.46 858.883C1896.14 860.87 1893.36 863.078 1891.39 865.353C1889.8 863.379 1889.84 863.473 1887.64 862.144L1894.19 855.317L1894.73 854.38Z"/><path fill="#FC0" d="M1883.54 861.192C1883.27 854.509 1889.14 853.846 1894.19 855.317L1887.64 862.144C1886.01 862.397 1885.09 861.82 1883.54 861.192Z"/><path fill="#FC0" d="M1888.97 607.436C1892.4 610.889 1894.6 613.592 1897.67 617.411C1890.03 618.357 1889.1 613.445 1888.97 607.436Z"/><path fill="#FC0" d="M1788.35 517.353L1789.56 519.471C1787.18 521.247 1785.06 523.915 1781.89 522.707L1781.99 521.362C1783.27 520.008 1783.81 519.658 1785.28 518.551C1785.83 518.218 1787.64 517.612 1788.35 517.353Z"/><path fill="#FC0" d="M1807.19 887.025C1809.17 887.376 1808.4 886.919 1809.69 888.195C1809.37 891.801 1806.38 893.852 1803.66 896.387L1802.23 896.653L1801.78 895.935C1802.16 892.288 1804.67 889.498 1807.19 887.025Z"/><path fill="#FC0" d="M1791.2 546.823C1793.53 548.977 1796.47 550.971 1796.4 554.218C1793.81 554.596 1794.53 554.841 1792.33 554.009C1790.61 551.35 1790.93 550.214 1791.2 546.823Z"/><path fill="#FC0" d="M1803.44 915.61C1804.14 915.854 1803.7 915.658 1804.66 916.401C1804.73 919.564 1802.68 921.213 1800.58 923.347C1799.29 922.874 1799.88 923.21 1798.94 922.082L1799.11 920.32C1800.69 917.75 1801.06 917.583 1803.44 915.61Z"/><path fill="#FC0" d="M1750.92 515.585L1753.01 515.618C1758.89 517.857 1761.45 521.652 1765.59 526.315C1763.3 528.964 1760.99 531.779 1758.25 533.953C1756.7 532.24 1751.61 527.015 1751.06 525.316C1752.62 524.88 1752.72 524.919 1754.09 524.078C1753.55 522.311 1751.96 521.218 1750.53 519.907C1749.93 517.844 1750.23 517.625 1750.92 515.585Z"/><path fill="#FC0" d="M1763.63 505.213C1761.47 503.306 1753.76 497.363 1755.02 494.468C1757.7 493.62 1762.14 494.764 1764.13 496.839C1764.45 500.184 1764.7 500.738 1766.02 503.861L1763.63 505.213Z"/><path fill="#FC0" d="M1750.92 515.585C1748.89 515.241 1745.28 514.91 1743.81 513.757C1743.91 511.932 1743.78 512.656 1744.86 510.944C1743.34 507.389 1740.62 503.331 1739.75 500.212C1741.77 502.87 1752.78 515.089 1753.01 515.618L1750.92 515.585Z"/><path fill="#FC0" d="M1743 965.584C1746.09 966.914 1747.5 960.486 1751.51 959.399C1753.36 960.417 1752.59 959.667 1753.41 962.183C1751.25 964.911 1745.56 971.65 1743 965.584Z"/><path fill="#FC0" d="M394.065 953.315C394.854 955.264 394.827 954.313 394.229 956.261C391.508 957.537 388.279 954.127 386.337 952.244C380.105 946.202 374.13 939.755 368.006 933.605C362.879 929.493 360.302 927.041 355.826 922.255C348.238 914.781 340.697 907.26 333.203 899.692L332.128 898.923C328.299 895.455 324.405 892.34 320.615 888.935C317.506 886.14 314.71 881.967 311.485 879.188C303.347 872.178 292.252 862.825 285.152 854.838C281.99 851.661 279.97 849.176 277.143 845.662C272.667 841.681 268.337 835.097 264.457 832.008C251.208 821.46 241.865 809.825 230.744 797.426L197.566 760.699C174.518 734.746 157.686 727.001 195.608 698.932C208.036 689.734 222.407 674.483 233.318 662.967C234.536 661.557 236.502 659.116 237.734 657.864C240.931 654.36 246.486 647.381 251.006 646.737C253.049 645.954 253.067 645.422 254.377 643.166C256.941 640.774 259.946 639.421 261.789 637.482C263.626 633.862 267.654 630.931 270.871 628.474L273.342 626.576L276.42 623.52C278.551 621.693 281.108 619.661 282.918 617.569C285.798 614.939 287.933 613.615 290.447 611.444C294.493 606.303 302.949 599.34 307.867 595.058L333.205 573.112C336.822 570.033 350.766 556.353 354.49 555.422L355.783 555.876C355.844 557.363 355.781 557.112 354.237 558.711C345.705 567.548 315.837 591.338 310.747 600.637C317.904 595.395 320.501 591.536 326.757 585.668C333.741 579.115 342.004 573.661 349.628 567.999C352.631 565.769 356.912 560.43 360.065 557.799C365.158 553.549 370.855 550.138 376.467 546.633L379.827 543.878C383.483 540.532 400.746 525.336 404.622 525.201L404.945 525.984C404.202 527.645 402.808 529.519 401.412 530.634L401.569 533.005C404.083 534.413 407.887 530.245 409.858 528.49C410.611 530.805 409.904 530.115 411.601 531.052C415.296 530.052 416.592 524.138 419.43 525.362C422.58 524.143 422.968 523.13 425.63 520.845C426.585 521.54 426.265 521.088 426.612 522.183C424.376 525.79 419.703 529.504 416.672 532.973C409.428 541.262 397.758 553.199 391.799 562.097L392.12 563.262C394.928 560.578 398.61 561.343 400.551 558.606L398.227 558.881C399.346 557.068 410.879 547.041 413.168 545.238L414.062 545.446L414.356 546.591C413.189 551.373 409.23 551.669 407.172 554.363C402.023 561.1 398.178 568.029 392.215 574.325C390.616 576.789 382.013 585.359 379.376 588.413C367.808 601.978 355.995 615.332 343.945 628.471L283.655 693.134C276.634 700.684 251.628 724.731 249.134 733.256C249.998 742.077 267.645 758.718 272.502 767.584C273.183 768.827 279.876 774.455 281.481 776.223L335.205 834.477C350.231 850.838 364.661 868.307 378.989 885.527C383.815 891.327 395.522 901.937 399.09 909.057C400.142 911.157 397.851 911.833 400.484 916.26C402.182 918.272 403.785 920.365 405.407 922.439C402.879 924.438 400.755 927.028 398.648 929.465C397.122 927.992 395.177 926.402 394.188 924.643C393.724 924.484 390.229 923.252 390.057 923.01C388.303 920.54 383.929 912.034 380.659 911.919C380.01 914.148 380.669 915.129 381.767 917.099C382.049 917.604 382.338 918.104 382.631 918.603C385.591 921.867 388.476 924.861 390.893 928.561L390.171 935.508C390.709 937.066 398.874 946.908 400.456 948.878L398.258 950.122C399.466 952.995 399.702 953.504 399.992 956.581C398.493 955.38 395.681 952.815 394.004 952.437L394.065 953.315Z"/><path fill="#FC0" d="M355.826 922.255C348.238 914.781 340.697 907.26 333.203 899.692C339.565 895.849 341 897.843 345.275 902.852C348.349 907.768 361.482 917.2 362.239 920.698C359.946 920.89 358.032 921.592 355.826 922.255Z"/><path fill="#FC0" d="M394.065 953.315C394.854 955.264 394.827 954.313 394.229 956.261C391.508 957.537 388.279 954.127 386.337 952.244C380.105 946.202 374.13 939.755 368.006 933.605C368.489 932.655 369.188 931.386 369.593 930.439C370.39 931.362 370.93 931.878 371.799 932.741C375.564 932.556 374.896 932.566 376.604 935.762L377.715 937.71C381.779 941.809 382.169 945.443 389.107 947.12C391.67 948.95 392.775 949.715 392.843 952.882L394.065 953.315Z"/><path fill="#FC0" d="M279.848 627.664C279.847 628.454 279.871 629.425 279.171 629.964C276.179 632.272 267.234 641.399 264.161 641.804C263.905 640.437 263.711 639.566 263.339 638.228L261.789 637.482C263.626 633.862 267.654 630.931 270.871 628.474L273.342 626.576L276.42 623.52C277.619 625.177 278.473 626.139 279.848 627.664Z"/><path fill="#FC0" d="M273.342 626.576C275.377 627.519 274.666 626.834 275.836 628.408C275.995 631.186 274.15 635.588 270.803 633.714C269.94 631.924 270.496 630.503 270.871 628.474L273.342 626.576Z"/><path fill="#FC0" d="M383.235 546.917C384.817 547.461 386.349 546.812 388.212 546.423L388.712 546.879L387.62 548.787C387.991 550.774 388.49 552.059 387.708 553.873C386.516 555.121 386.479 555.408 384.788 555.735C382.586 554.654 382.87 554.171 381.541 552.218C379.414 554.656 381.543 560.667 376.943 561.309C375.126 560.592 375.242 560.673 374.076 559.103C373.497 556.643 373.941 555.048 374.313 552.546C376.691 550.761 379.887 549.661 381.471 548.333L381.569 547.95L383.235 546.917Z"/><path fill="#FC0" d="M381.569 547.95C381.052 546.679 380.464 545.056 379.827 543.878C383.483 540.532 400.746 525.336 404.622 525.201L404.945 525.984C404.202 527.645 402.808 529.519 401.412 530.634C395.676 533.54 386.955 541.591 383.235 546.917L381.569 547.95Z"/><path fill="#FC0" d="M245.878 658.177C242.496 658.852 240.961 659.225 237.734 657.864C240.931 654.36 246.486 647.381 251.006 646.737C254.094 650.422 250.838 653.946 248.275 656.657C247.57 656.932 246.548 657.716 245.878 658.177Z"/><path fill="#FC0" d="M399.992 956.581C398.493 955.38 395.681 952.815 394.004 952.437L394.065 953.315L392.843 952.882C392.775 949.715 391.67 948.95 389.107 947.12C382.169 945.443 381.779 941.809 377.715 937.71C378.362 937.471 380.027 936.914 380.534 936.608C384.836 940.389 385.903 941.833 389.352 946.232C394.327 945.972 394.644 946.642 398.258 950.122C399.466 952.995 399.702 953.504 399.992 956.581Z"/><path fill="#FC0" d="M392.215 574.325C392.22 570.435 407.148 555.713 405.946 553.265C404.246 553.863 402.83 555.688 401.526 557.068C401.505 557.871 401.676 559.618 401.074 559.932C395.929 562.606 394.669 562.764 390.486 566.782L389.893 566.706C390.853 563.033 391.029 566.247 392.12 563.262C394.928 560.578 398.61 561.343 400.551 558.606L398.227 558.881C399.346 557.068 410.879 547.041 413.168 545.238L414.062 545.446L414.356 546.591C413.189 551.373 409.23 551.669 407.172 554.363C402.023 561.1 398.178 568.029 392.215 574.325Z"/><path fill="#FC0" d="M398.648 929.465C397.122 927.992 395.177 926.402 394.188 924.643C395.586 923.585 395.382 924.149 395.838 922.886L396.504 921.053C397.664 917.86 397.793 918.294 400.484 916.26C402.182 918.272 403.785 920.365 405.407 922.439C402.879 924.438 400.755 927.028 398.648 929.465Z"/><path fill="#FC0" d="M245.878 658.177C247.26 660.609 247.663 660.549 247.536 662.96L246.857 663.513C242.014 658.923 243.154 665.128 238.693 666.405C236.488 665.878 235.121 664.436 233.318 662.967C234.536 661.557 236.502 659.116 237.734 657.864C240.961 659.225 242.496 658.852 245.878 658.177Z"/><path fill="#FC0" d="M290.141 621.396C288.72 620.819 287.873 620.288 286.372 620.521C284.35 619.298 284.382 619.385 282.918 617.569C285.798 614.939 287.933 613.615 290.447 611.444C290.853 613.658 290.557 614.065 291.784 615.552C295.111 613.953 300.638 608.307 304.784 605.741C301.121 610.519 291.837 616.5 290.141 621.396Z"/><path fill="#FC0" d="M368.006 933.605C362.879 929.493 360.302 927.041 355.826 922.255C358.032 921.592 359.946 920.89 362.239 920.698C362.743 921.986 367.851 927.777 369.593 930.439C369.188 931.386 368.489 932.655 368.006 933.605Z"/><path fill="#FC0" d="M254.377 643.166C265.822 647.028 253.663 654.548 248.275 656.657C250.838 653.946 254.094 650.422 251.006 646.737C253.049 645.954 253.067 645.422 254.377 643.166Z"/><path fill="#FC0" d="M332.128 898.923C332.45 896.758 332.569 895.727 333.229 893.666C334.781 892.154 333.885 892.654 336.05 892.173C339.665 893.035 345.19 899.403 345.275 902.852C341 897.843 339.565 895.849 333.203 899.692L332.128 898.923Z"/><path fill="#FC0" d="M390.171 935.508C388.539 931.43 388.917 930.417 385.286 927.457C382.332 925.047 382.726 922.225 382.631 918.603C385.591 921.867 388.476 924.861 390.893 928.561L390.171 935.508Z"/><path fill="#FC0" d="M279.848 627.664C278.473 626.139 277.619 625.177 276.42 623.52C278.551 621.693 281.108 619.661 282.918 617.569C284.382 619.385 284.35 619.298 286.372 620.521L280.345 626.801L279.848 627.664Z"/><path fill="#FC0" d="M290.141 621.396C290.387 627.544 284.99 628.154 280.345 626.801L286.372 620.521C287.873 620.288 288.72 620.819 290.141 621.396Z"/><path fill="#FC0" d="M285.152 854.838C281.99 851.661 279.97 849.176 277.143 845.662C284.174 844.792 285.03 849.31 285.152 854.838Z"/><path fill="#FC0" d="M377.715 937.71L376.604 935.762C378.79 934.127 380.743 931.673 383.659 932.785L383.565 934.021C382.388 935.268 381.887 935.589 380.534 936.608C380.027 936.914 378.362 937.471 377.715 937.71Z"/><path fill="#FC0" d="M360.382 597.631C358.558 597.309 359.264 597.729 358.078 596.556C358.376 593.238 361.127 591.351 363.63 589.019L364.944 588.774L365.357 589.435C365.005 592.79 362.701 595.357 360.382 597.631Z"/><path fill="#FC0" d="M375.09 910.599C372.945 908.618 370.247 906.783 370.305 903.796C372.688 903.448 372.027 903.223 374.052 903.988C375.634 906.435 375.338 907.48 375.09 910.599Z"/><path fill="#FC0" d="M363.827 571.335C363.189 571.111 363.596 571.291 362.707 570.608C362.643 567.698 364.527 566.18 366.459 564.217C367.652 564.652 367.103 564.344 367.968 565.381L367.815 567.002C366.362 569.366 366.023 569.52 363.827 571.335Z"/><path fill="#FC0" d="M412.15 939.336L410.223 939.306C404.816 937.246 402.461 933.755 398.648 929.465C400.755 927.028 402.879 924.438 405.407 922.439C406.833 924.014 411.511 928.821 412.021 930.384C410.58 930.785 410.486 930.749 409.235 931.523C409.728 933.149 411.19 934.155 412.505 935.36C413.056 937.258 412.782 937.459 412.15 939.336Z"/><path fill="#FC0" d="M400.456 948.878C402.439 950.632 409.531 956.099 408.379 958.762C405.909 959.543 401.826 958.49 399.992 956.581C399.702 953.504 399.466 952.995 398.258 950.122L400.456 948.878Z"/><path fill="#FC0" d="M412.15 939.336C414.014 939.652 417.337 939.957 418.685 941.018C418.597 942.697 418.717 942.031 417.72 943.605C419.116 946.876 421.619 950.609 422.425 953.479C420.562 951.034 410.435 939.792 410.223 939.306L412.15 939.336Z"/><path fill="#FC0" d="M419.43 525.362C416.592 524.138 415.296 530.052 411.601 531.052C409.904 530.115 410.611 530.805 409.858 528.49C411.839 525.981 417.081 519.781 419.43 525.362Z"/><path fill="#FC0" d="M569.398 451.353C573.507 438.174 577.657 437.09 585.441 426.555C588.758 422.067 591.363 412.677 595.918 406.995C600.773 399.078 613.867 390.655 618.39 383.247C625.358 371.835 632.872 358.854 641.005 347.985C645.194 342.386 652.199 329.505 656.41 325.401C671.911 310.291 684.691 293.601 699.964 278.362C707.974 270.415 719.401 260.946 730.117 258.168C740.581 255.455 755.312 267.09 763.939 272.452L770.988 277.18C793.128 293.779 806.287 303.831 832.249 314.451C830.347 317.704 830.126 321.535 829.843 325.312L824.02 326.931C824.802 328.71 824.237 327.892 826.204 329.13C822.485 330.748 809.125 330.266 804.549 330.077C795.774 329.288 781.005 328.259 772.757 325.817C762.741 322.852 762.791 319.867 751.039 318.617C747.208 327.073 740.801 344.217 734.037 349.123C733.811 363.119 727.861 372.852 727.648 384.192C727.141 410.965 729.741 447.708 734.766 473.723C737.141 476.963 738.111 480.945 739.351 484.825C746.75 487.914 754.373 490.854 761.637 493.982C772.683 498.736 781.855 504.489 794.03 506.168C796.265 506.476 806.402 508.113 807.216 509.599L806.617 511.481C808.615 514.49 841.37 514.441 848.329 515.559C839.42 522.963 834.178 524.727 823.008 529.156C790.675 541.978 751.787 541.304 717.443 541.072C706.641 540.998 685.714 533.784 673.887 531.923C673.406 534.343 672.917 537.232 672.286 539.574L670.404 545.879C667.597 553.132 663.264 563.585 661.102 570.898L658.884 578.674C653.798 589.578 649.07 600.644 644.706 611.859C641.705 619.734 639.371 627.712 636.078 635.5C629.833 650.269 624.469 665.243 618.998 680.302C617.748 683.408 616.755 686.434 615.695 689.601C607.714 715.984 593.597 747.189 583.516 773.339C573.98 798.079 566.983 821.109 558.358 845.753C564.244 841.411 566.11 841.091 572.694 838.68C598.335 829.29 587.904 850.41 581.218 863.584C574.657 876.514 569.65 888.742 558.146 899.395C562.855 903.837 567.151 906.729 563.4 913.438C560.153 919.71 558.899 921.725 554.285 927.005C580.131 942.466 590.84 971.19 606.806 996.077C625.244 1024.82 650.265 1049.49 671.858 1075.72C676.74 1081.64 694.504 1088.15 698.165 1092.8C699.085 1096.58 698.636 1098.36 702.462 1100.37C711.465 1105.09 720.761 1109.2 730.022 1113.38C736.188 1116.15 741.67 1118.32 747.16 1122.34C742.365 1122.15 737.577 1121.82 732.804 1121.33C754.6 1129.19 773.854 1128.52 794.862 1133.7C783.639 1135.87 772.58 1136.05 761.203 1135.64C753.77 1135.38 737.873 1129.95 733.294 1131.22L732.873 1132.46C734.72 1135.07 754.717 1138.39 759.093 1139.55C743.934 1140.32 733.107 1136.95 718.639 1132.29C712.513 1129.93 706.77 1127.84 700.626 1125.35C698.789 1126.61 698.875 1126.5 697.616 1128.33C708.424 1137.25 720.983 1141.81 734.464 1145.44C740.813 1147.15 750.997 1147.51 756.008 1151.15L755.979 1151.97C752.45 1153.84 741.369 1153.18 737.296 1153.06C696.553 1151.83 658.591 1134.76 627.763 1108.63C624.367 1105.76 620.99 1103.55 616.797 1101.74C620.286 1107.21 623.307 1108.62 626.86 1112.56C637.339 1124.21 640.146 1128.03 653.615 1135.71C658.439 1138.75 682.768 1151.39 684.604 1153.2C692.389 1156.81 702.929 1162.11 710.082 1166.79C703.62 1166.07 698.068 1165.5 691.681 1164.22L698.906 1169.29C703.657 1170.85 709.04 1172.34 713.174 1175.07C722.521 1179.67 737.199 1183.11 747.469 1187.49L747.441 1192.1C737.044 1189.31 726.853 1185.99 716.525 1183.11C723.536 1187.67 739.038 1194.3 747.377 1196.24L755.584 1198.91L761.852 1201.25C765.853 1202.72 768.413 1203.61 772.461 1204.62C779.364 1206.32 793.634 1207.15 799.2 1210.99C799.937 1212.52 800.555 1213.55 800.818 1215.24C795.518 1218.25 775.197 1214.56 768.932 1213.09C768.532 1213.82 768.172 1214.2 767.654 1214.86C762.078 1217.11 748.093 1214.71 742.653 1212.55L741.897 1212.19C737.877 1211.47 732.886 1210.05 728.841 1209.02C716.375 1205.52 704.794 1201.75 692.975 1196.45C676.582 1189.08 660.441 1180.08 643.966 1172.98L660.08 1185.81C665.29 1189.76 672.463 1194.78 678.082 1198.28C677.933 1199.53 677.806 1201.06 677.54 1202.26C675.565 1201.86 675.434 1201.49 673.8 1203L684.39 1211.7C683.106 1213.44 682.131 1214.5 681.446 1216.57C665.245 1208.5 653.74 1200.55 638.373 1191.88C638.942 1194.07 639.619 1194.35 641.372 1195.8C637.341 1197.86 638.047 1199.13 637.629 1203.43C633.701 1200.56 630.765 1198.3 627.09 1195.13C614.27 1183.71 600.539 1172.48 590.59 1158.58C587.538 1154.32 584.205 1150.58 580.251 1147.11C582.812 1151.59 585.843 1156.61 588.994 1160.72C595.855 1169.67 601.731 1178.92 607.877 1188.33C616.203 1201.07 628.684 1211.25 638.88 1222.43C651.883 1236.61 664.688 1250.97 678.834 1264.03C666.063 1258.82 652.423 1253.88 642.076 1244.6C636.054 1239.2 630.586 1233.19 624.488 1227.83C624.349 1229.53 624.446 1228.86 625.317 1230.76C639.73 1252.02 653.745 1262.9 670.53 1281.43C676.019 1286.79 691.132 1299.99 694.811 1304.47C690.164 1302.48 667.241 1288.07 665.223 1288.56C667.188 1290.99 668.134 1293.14 669.558 1295.9C656.87 1292.06 649.733 1285.06 639.794 1276.61C635.048 1272.69 630.546 1268.16 626.112 1263.87C624.581 1262.42 622.794 1260.91 621.198 1259.49C621.806 1262.34 624.034 1265.7 625.542 1268.33C622.006 1266.64 619.924 1265.9 617.571 1262.62C595.924 1239.21 574.183 1217.91 557.743 1190C546.022 1170.09 537.262 1149.28 523.848 1130.41C528.155 1147.75 536.875 1166.95 546.467 1182.03C549.666 1186.1 554.045 1195.78 554.512 1201L553.32 1202.69C558.049 1210.65 561.157 1217.53 566.642 1225.35C573.19 1234.68 580.858 1241.56 586.027 1251.52C577.569 1246.48 573.963 1242.4 566.722 1236.26C553.01 1224.63 539.956 1209.71 530.255 1194.5C521.604 1180.94 515.367 1169.52 505.562 1156.33C509.026 1171.83 515.717 1173.27 516.898 1188.46C513.89 1184.3 502.492 1166.73 500.677 1162.84C491.938 1144.13 483.804 1119.78 479.981 1099.53C477.45 1086.12 477.825 1075.89 473.894 1061.98C468.132 1106.9 485.469 1154.4 505.314 1194.23C507.366 1198.35 514.06 1208.07 514.592 1211.57L513.681 1212.09C508.668 1210.53 500.463 1199.77 498.007 1195C494.864 1193.13 491.779 1191.4 489.482 1188.49C475.807 1171.15 467.761 1149.91 459.494 1129.67C457.154 1123.94 455.329 1118.17 452.311 1112.92C453.121 1119.1 455.528 1126.36 457.406 1132.37C456.248 1133.93 455.995 1133.98 454.433 1135.07C453.21 1130.87 450.686 1126.38 449.191 1121.8C429.287 1060.93 443.559 986.901 477.239 933.304C481.36 926.745 487.821 921.581 495.417 920.464C487.367 914.557 484.698 910.406 489.536 900.414C492.142 895.033 494.26 892.792 499.905 891.192C499.916 889.469 498.168 880.052 497.54 878.106C494.672 869.223 490.831 815.982 502.983 815.948C505.277 817.064 506.101 819.276 507.758 821.607C508.751 821.236 508.952 821.08 509.787 820.463C513.036 822.878 515.056 830.987 516.852 834.754C517.763 836.667 519.354 838.985 520.54 840.774C520.223 818.462 525.331 798.835 530.694 777.308C534.674 761.447 539.005 745.675 543.686 730.007C544.037 727.924 544.877 724.924 545.4 722.797C546.29 720.774 547.709 715.933 548.445 713.625C549.949 706.357 553.359 696.234 555.645 689.082C557.01 682.529 560.652 672.004 562.881 665.624C563.266 662.868 565.392 656.227 566.273 653.241C568.008 648.213 569.644 640.944 571.457 635.302L589.406 579.63C594.815 562.676 606.086 537.022 606.325 519.793C599.093 515.375 554.032 503.187 542.703 499.762C540.076 498.584 537.325 497.177 534.72 495.909C512.495 487.552 475.491 461.108 460.775 441.83C458.905 439.382 456.04 434.131 457.149 431.147C457.419 430.421 457.269 429.845 458.413 429.418C466.957 426.232 476.825 432.977 483.666 436.221C498.967 443.477 518.528 447.068 535.329 447.983C549.307 448.745 555.733 447.134 569.398 451.353ZM563.991 670.689C563.65 673.916 562.86 677.902 564.027 680.792L564.868 681.002C568.048 677.653 568.66 673.655 569.669 669.259C569.346 667.269 569.436 666.452 567.967 665.104C564.636 664.793 564.292 668.073 563.991 670.689ZM692.292 1163.58C689.864 1161.17 685.701 1158.36 682.658 1156.8C679.702 1155.83 679.32 1155.6 676.25 1155.77C682.843 1160.9 683.987 1161.6 692.292 1163.58ZM536.851 1088.8C538.549 1091.61 539.913 1092.65 542.298 1094.82C541.734 1090.65 541.293 1088.13 540.296 1084.06C538.449 1079.27 535.825 1073.2 534.338 1068.4C532.206 1061.53 529.903 1041.72 525.39 1036.75L524.408 1036.8C519.772 1046.26 535.301 1079.51 536.851 1088.8ZM588.959 744.01C592.064 741.28 599.763 714.785 599.209 710.229C594.935 721.844 585.009 732.29 588.959 744.01ZM656.028 1067.68C652.006 1061.25 646.629 1056.97 639.878 1053.62C643.661 1059.61 649.334 1065.15 656.028 1067.68Z"/><path fill="#FC0" d="M563.991 670.689C564.292 668.073 564.636 664.793 567.967 665.104C569.436 666.452 569.346 667.269 569.669 669.259C568.66 673.655 568.048 677.653 564.868 681.002L564.027 680.792C562.86 677.902 563.65 673.916 563.991 670.689Z"/><path fill="#FC0" d="M653.615 1135.71C658.439 1138.75 682.768 1151.39 684.604 1153.2C682.828 1154.71 683.39 1154.16 682.658 1156.8C679.702 1155.83 679.32 1155.6 676.25 1155.77C675.634 1155.73 671.793 1153.79 671.006 1153.39C668.688 1152.21 661.928 1151.3 660.601 1149.83C661.159 1148.29 661.073 1148.72 661.281 1147.07C654.462 1143.18 647.07 1147.44 653.615 1135.71Z"/><path fill="#FC0" d="M600.961 705.234C604.497 693.332 610.706 674.723 617.632 664.805C616.177 671.643 614.5 674.54 618.998 680.302C617.748 683.408 616.755 686.434 615.695 689.601C611.001 691.956 604.514 700.835 600.961 705.234Z"/><path fill="#FC0" d="M683.365 1115.53L683.361 1113.79C688.244 1110.36 705.798 1120.05 710.6 1122.6L709.983 1122.63C706.213 1122.83 703.273 1121.92 700.269 1122.63L699.684 1123.67L700.626 1125.35C698.789 1126.61 698.875 1126.5 697.616 1128.33C694.497 1128.3 687.135 1123.23 684.561 1121.05L683.611 1119.46C683.705 1117.63 683.821 1117.33 683.365 1115.53Z"/><path fill="#FC0" d="M653.348 1276.29C659.734 1277.17 661.359 1288.23 670.53 1281.43C676.019 1286.79 691.132 1299.99 694.811 1304.47C690.164 1302.48 667.241 1288.07 665.223 1288.56C665.13 1288.44 665.036 1288.32 664.942 1288.2C660.61 1284.82 656.981 1280.45 653.348 1276.29Z"/><path fill="#FC0" d="M626.112 1263.87C630.992 1262.27 634.468 1262.78 639.489 1263.16C643.061 1265.5 651.155 1272.03 652.859 1275.81C649.508 1273.71 647.189 1271.64 643.332 1272.29C641.193 1273.53 640.717 1274.2 639.794 1276.61C635.048 1272.69 630.546 1268.16 626.112 1263.87Z"/><path fill="#FC0" d="M742.653 1212.55C746.889 1208.6 748.873 1205.54 755.043 1207.37L758.687 1207.83C760.444 1208.33 760.844 1208.47 762.714 1208.67L763.788 1209.86C765.307 1210.94 767.264 1212.58 768.932 1213.09C768.532 1213.82 768.172 1214.2 767.654 1214.86C762.078 1217.11 748.093 1214.71 742.653 1212.55Z"/><path fill="#FC0" d="M755.043 1207.37L758.687 1207.83C760.444 1208.33 760.844 1208.47 762.714 1208.67L763.788 1209.86C760.674 1211.93 754.964 1213.81 751.486 1211.85L751.29 1210.66C752.506 1208.82 753.212 1208.55 755.043 1207.37Z"/><path fill="#FC0" d="M548.445 713.625C549.949 706.357 553.359 696.234 555.645 689.082C557.755 690.373 558.19 690.546 560.642 690.818C562.223 692.101 561.687 691.306 562.236 693.333C561.554 696.197 560.82 699.05 560.037 701.888C553.553 702.655 553.953 709.019 553.415 714.356C551.195 713.107 551.43 713.56 548.445 713.625Z"/><path fill="#FC0" d="M654.288 544.143C656.438 544.071 658.933 544.229 660.747 543.253C661.45 540.81 661.727 540.063 663.803 538.676C670.229 539.975 666.75 537.282 670.359 536.569L672.286 539.574L670.404 545.879C656.883 544.774 663.218 548.327 652.959 552.181C651.323 557.586 649.947 562.662 647.508 567.778C648.704 557.445 650.038 553.815 654.288 544.143Z"/><path fill="#FC0" d="M660.08 1185.81C665.29 1189.76 672.463 1194.78 678.082 1198.28C677.933 1199.53 677.806 1201.06 677.54 1202.26C675.565 1201.86 675.434 1201.49 673.8 1203C672.631 1202.59 661.973 1194.14 660.204 1192.85L660.08 1185.81Z"/><path fill="#FC0" d="M710.6 1122.6C713.413 1123.9 716.24 1125.17 719.081 1126.41C719.903 1128.7 718.238 1128.97 718.639 1132.29C712.513 1129.93 706.77 1127.84 700.626 1125.35L699.684 1123.67L700.269 1122.63C703.273 1121.92 706.213 1122.83 709.983 1122.63L710.6 1122.6Z"/><path fill="#FC0" d="M566.273 653.241L566.788 653.776C568.104 655.12 568.587 655.959 570.395 656.199C572.849 653.917 572.123 650.372 574.386 648.164L575.137 648.231C575.639 649.909 575.311 651.566 574.407 653.04C570.998 658.602 570.451 662.899 569.669 669.259C569.346 667.269 569.436 666.452 567.967 665.104C564.636 664.793 564.292 668.073 563.991 670.689C563.971 668.38 564.191 667.519 562.881 665.624C563.266 662.868 565.392 656.227 566.273 653.241Z"/><path fill="#FC0" d="M728.841 1209.02C730.33 1207.59 731.767 1206.24 733.169 1204.73C731.436 1202.52 728.473 1202.81 726.816 1200.34L727.033 1199.21C733.546 1195.87 740.234 1206.94 741.897 1212.19C737.877 1211.47 732.886 1210.05 728.841 1209.02Z"/><path fill="#FC0" d="M627.09 1195.13C632.66 1193.94 630.999 1193.45 635.478 1190.05C637.227 1190.42 637.112 1190.54 638.373 1191.88C638.942 1194.07 639.619 1194.35 641.372 1195.8C637.341 1197.86 638.047 1199.13 637.629 1203.43C633.701 1200.56 630.765 1198.3 627.09 1195.13Z"/><path fill="#FC0" d="M670.922 1109.11C668.107 1107.92 666.118 1107.3 663.804 1105.29L663.777 1104.01C669.084 1098.69 678.242 1109.36 678.566 1111.72L674.36 1112.44L674.446 1114.96C672.674 1113.14 672.029 1111.39 670.922 1109.11Z"/><path fill="#FC0" d="M546.467 1182.03C549.666 1186.1 554.045 1195.78 554.512 1201L553.32 1202.69C548.722 1192.58 544.039 1195.38 546.467 1182.03Z"/><path fill="#FC0" d="M619.88 1236.47C618.608 1232.67 615.998 1223.72 621.653 1222.23C623.817 1223.88 623.834 1225.06 624.488 1227.83C624.349 1229.53 624.446 1228.86 625.317 1230.76C623.756 1232.07 621.339 1234.88 619.88 1236.47Z"/><path fill="#FC0" d="M804.549 330.077C809.08 324.991 817.761 326.31 824.02 326.931C824.802 328.71 824.237 327.892 826.204 329.13C822.485 330.748 809.125 330.266 804.549 330.077Z"/><path fill="#FC0" d="M698.906 1169.29C703.657 1170.85 709.04 1172.34 713.174 1175.07C709.216 1176.11 702.327 1178.26 699.175 1175.16C698.195 1173.1 698.645 1171.6 698.906 1169.29Z"/><path fill="#FC0" d="M674.446 1114.96L674.36 1112.44C676.028 1114.29 679.594 1115.46 682.018 1115.95L683.365 1115.53C683.821 1117.33 683.705 1117.63 683.611 1119.46L684.561 1121.05C681.986 1122.33 679.964 1124.05 677.681 1125.81C677.197 1121.36 677.342 1118.36 674.446 1114.96Z"/><path fill="#FC0" d="M545.4 722.797C550.077 726.302 552.354 733.632 548.006 737.869C545.54 736.738 545.59 732.48 543.686 730.007C544.037 727.924 544.877 724.924 545.4 722.797Z"/><path fill="#FC0" d="M747.377 1196.24L755.584 1198.91C753.465 1201.76 748.555 1205.66 744.903 1205.35L744.155 1204.22C744.188 1200.9 745.646 1199.27 747.377 1196.24Z"/><path fill="#FC0" d="M553.415 714.356C553.953 709.019 553.553 702.655 560.037 701.888C559.393 706.059 558.897 712.714 556.301 715.688L554.997 715.978L553.415 714.356Z"/><path fill="#FC0" d="M558.146 899.395C562.855 903.837 567.151 906.729 563.4 913.438C559.795 908.403 555.751 905.724 558.146 899.395Z"/><path fill="#FC0" d="M734.766 473.723C737.141 476.963 738.111 480.945 739.351 484.825L729.139 483.891C731.589 480.024 732.999 477.903 734.766 473.723Z"/><path fill="#FC0" d="M763.939 272.452L770.988 277.18C770.155 279.828 770.115 281.097 767.386 282.09L766.034 281.436C763.581 278.004 763.656 276.712 763.939 272.452Z"/><path fill="#FC0" d="M783.572 1211C789.072 1210.29 793.601 1211.52 799.2 1210.99C799.937 1212.52 800.555 1213.55 800.818 1215.24C794.296 1213.88 790.008 1213.07 783.572 1211Z"/><path fill="#FC0" d="M758.687 1207.83L758.205 1207.09C756.568 1206.34 755.587 1206.12 754.696 1204.58C754.849 1203.03 755.453 1202.71 756.561 1201.54C758.909 1201.23 758.841 1201.68 761.401 1202.72L762.714 1208.67C760.844 1208.47 760.444 1208.33 758.687 1207.83Z"/><path fill="#FC0" d="M617.571 1262.62C617.767 1260.56 617.659 1259.51 618.859 1257.84C620.637 1258.18 619.792 1257.82 621.198 1259.49C621.806 1262.34 624.034 1265.7 625.542 1268.33C622.006 1266.64 619.924 1265.9 617.571 1262.62Z"/><path fill="#FC0" d="M541.804 491.117C542.341 494.537 542.545 496.273 542.703 499.762C540.076 498.584 537.325 497.177 534.72 495.909C537.38 494.254 539.286 493.054 541.804 491.117Z"/><path fill="#FC0" d="M661.102 570.898L658.884 578.674C656.971 576.984 655.896 576.227 656.126 573.571C657.47 571.729 658.884 571.591 661.102 570.898Z"/><path fill="#FC0" d="M477.901 974.579L478.426 974.876C478.627 979.325 475.961 987.841 473.479 991.553L472.645 991.602L472.866 990.234C472.412 987.731 468.716 979.556 467.451 975.47C470.608 975.065 474.66 974.842 477.901 974.579Z"/><path fill="#FC0" d="M599.209 710.229C599.763 714.785 592.064 741.28 588.959 744.01C585.009 732.29 594.935 721.844 599.209 710.229Z"/><path fill="#FC0" d="M721.574 353.266C723.303 354.035 722.685 353.722 724.065 355.263C725.303 359.602 721.889 367.877 720.319 372.359C717.46 368.646 714.946 363.011 716.38 358.3C717.288 355.32 719.039 354.716 721.574 353.266Z"/><path fill="#FC0" d="M540.296 1084.06C543.604 1085.42 545.71 1085.84 549.146 1086.63C547.296 1091.19 544.199 1100.06 537.938 1099.11C535.916 1096.87 536.184 1091.49 536.851 1088.8C538.549 1091.61 539.913 1092.65 542.298 1094.82C541.734 1090.65 541.293 1088.13 540.296 1084.06Z"/><path fill="#FC0" d="M473.002 1031.03C476.512 1035.04 480.428 1043.93 478.472 1049.29C468.025 1049.01 471.333 1037.91 473.002 1031.03Z"/><path fill="#FC0" d="M470 1002.45L471.024 1003.9C472.251 1012.31 469.817 1024.8 466.772 1032.64C463.735 1025.87 468.092 1009.29 470 1002.45Z"/><path fill="#FC0" d="M575.358 1131.01C578.348 1130.91 581.742 1130.59 584.399 1131.79C585.546 1134.96 578.594 1135.77 576.868 1140.05C577.632 1141.45 578.298 1142.23 578.024 1143.77C576.349 1144.53 577.222 1144.46 575.31 1143.74C571.197 1139.41 573.406 1135.55 575.358 1131.01Z"/><path fill="#FC0" d="M511.395 894.363C518.774 895.565 526.17 896.682 533.47 898.295C531.165 898.591 528.199 898.31 525.826 898.184C521.735 898.178 520.479 898.273 516.449 898.941C514.527 901.084 513.891 902.583 510.949 902.008C509.138 899.463 510.395 896.982 511.395 894.363Z"/><path fill="#FC0" d="M566.187 1040.93C572.79 1044.19 572.972 1051.07 568.464 1056.29L562.576 1050.42C566.705 1046.84 567.384 1046.48 566.187 1040.93Z"/><path fill="#FC0" d="M560.704 973.433C564.784 973.836 568.174 974.328 572.225 974.991C568.333 978.428 567.52 978.645 568.282 984.066C568.649 984.924 568.501 984.759 568.453 985.811L567.569 985.675C564.301 981.882 562.588 978.008 560.704 973.433Z"/><path fill="#FC0" d="M615.629 1177.17C621.995 1177.03 629.384 1180.65 630.653 1187.36C624.836 1186.68 624.991 1183.92 620.551 1181.1C617.639 1179.25 617.891 1180.7 615.629 1177.17Z"/><path fill="#FC0" d="M635.02 588.151C638.134 586.021 639.018 585.364 641.764 582.717C640.448 588.531 639.284 594.389 636.467 599.683C635.845 598.295 635.575 596.375 635.256 594.824L635.02 588.151Z"/><path fill="#FC0" d="M546.294 1102.9C547.579 1103.89 549.4 1106.2 550.533 1107.54C548.785 1109.86 547.195 1111.62 545.267 1113.76C543.002 1113.69 543.896 1114.09 542.34 1112.94C541.558 1110.06 544.746 1105.6 546.294 1102.9Z"/><path fill="#FC0" d="M621.96 609.925L622.446 610.623C622.498 614.233 621.897 616.733 621.216 620.231C619.419 621.883 617.375 623.114 615.336 624.467C612.194 618.06 619.846 617.215 621.96 609.925Z"/><path fill="#FC0" d="M602.956 481.399C603.838 481.701 605.104 482.498 605.557 483.322C607.964 487.696 605.897 488.777 602.818 490.277C600.206 489.241 599.686 489.044 599.188 486.433C600.048 483.934 601.006 483.33 602.956 481.399Z"/><path fill="#FC0" d="M685.434 357.925C686.042 358.579 686.679 359.525 687.207 360.246C687.725 364.72 685.28 365.75 681.441 367.054C679.599 365.45 679.702 365.99 678.954 363.971C679.607 362.485 683.633 359.98 685.434 357.925Z"/><path fill="#FC0" d="M797.122 525.395C799.968 526.622 801.252 526.642 801.295 529.878C800.228 531.705 799.382 531.938 797.526 532.949C795.002 532.624 793.431 532.848 793.018 530.115C794.092 527.788 795.148 527.151 797.122 525.395Z"/><path fill="#FC0" d="M649.893 450.764C649.498 452.666 647.606 454.69 646.326 456.403C646.804 459.793 648.351 465.75 645.124 467.715C640.878 460.18 643.627 455.902 649.893 450.764Z"/><path fill="#FC0" d="M622.253 1036.11C627.364 1038.29 627.284 1042.92 627.621 1047.7C620.726 1045 621.295 1042.6 622.253 1036.11Z"/><path fill="#FC0" d="M632.704 489.208C635.393 491.023 636.625 492.29 635.302 495.391C633.015 496.883 633.826 496.435 630.747 496.539C629.189 495.956 627.9 495.713 626.96 494.41L627.469 493.297C629.747 491.91 630.322 491.505 632.254 489.648L632.704 489.208Z"/><path fill="#FC0" d="M635.256 594.824C635.575 596.375 635.845 598.295 636.467 599.683C638.646 600.917 640.546 601.645 640.74 604.314C638.936 606.408 635.777 607.112 633.43 605.496C633.042 602.838 635.489 599.19 635.256 594.824Z"/><path fill="#FC0" d="M687.055 491.902C689.147 492.998 690.328 493.539 690.798 495.865C690.166 497.901 688.692 498.664 686.95 500.02L684.733 500.547L684.067 499.811C684.176 497.167 685.852 494.39 687.055 491.902Z"/><path fill="#FC0" d="M729.992 286.222C733.298 286.058 733.64 285.952 735.728 288.564C736.078 290.81 736.285 289.81 735.23 291.694L734.161 291.611C731.481 290.134 728.535 289.887 726.591 288.172C727.366 286.651 727.775 286.988 729.992 286.222Z"/><path fill="#FC0" d="M573.475 452.098C576.736 451.817 578.79 451.658 581.43 453.621C582.826 456.136 582.46 454.814 582.463 457.774C578.603 457.1 575.091 455.972 573.475 452.098Z"/><path fill="#FC0" d="M597.073 635.829C601.182 639.708 597.94 643.001 595.295 646.455C594.212 646.011 594.702 646.355 594.055 645.074C594 641.378 595.264 639.027 597.073 635.829Z"/><path fill="#FC0" d="M586.101 1060.63C589.238 1064.13 587.801 1066.34 585.786 1070.07C584.107 1068.61 583.759 1068.48 583.293 1066.28C583.561 1063.79 584.609 1062.78 586.101 1060.63Z"/><path fill="#FC0" d="M705.097 1109.54C709.69 1109.38 713.63 1111.68 717.107 1114.4C711.328 1114.49 708.608 1114.24 705.097 1109.54Z"/><path fill="#FC0" d="M712.193 518.079C715.647 518.911 717.991 519.847 719.385 523.238C717.045 523.398 714.866 523.854 712.895 522.719C711.709 520.459 712.104 520.992 712.193 518.079Z"/><path fill="#FC0" d="M629.445 418.348C631.93 420.035 632.191 423.102 636.543 425.945C633.874 425.572 631.201 425.226 628.524 424.91L629.445 418.348Z"/><path fill="#FC0" d="M695.515 493.675C697.776 493.906 698.882 493.83 700.853 494.985C702.353 496.738 702.225 497.192 702.405 499.47C701.188 499.259 700.011 498.865 698.914 498.298C696.706 497.177 696.245 495.865 695.515 493.675Z"/><path fill="#FC0" d="M588.23 482.18C591.299 482.208 593.17 481.923 595.287 484.03L595.038 485.401C592.997 486.007 592.526 486.257 590.348 486.128C588.495 484.555 589.057 484.935 588.23 482.18Z"/><path fill="#FC0" d="M716.349 371.669C717.473 372.348 718.262 372.979 719.307 373.761C720.375 376.306 720.039 375.539 719.72 378.609C717.068 377.757 718.104 378.48 716.337 376.606C715.678 374.483 715.963 373.833 716.349 371.669Z"/><path fill="#FC0" d="M650.123 1203.92C654.82 1207.85 663.602 1216.34 667.961 1219.07L665.881 1221.93C659.598 1218.71 652.067 1213.86 645.657 1210.25C647.117 1208.47 648.782 1205.87 650.123 1203.92Z"/><path fill="#FC0" d="M832.249 314.451C842.829 318.442 847.124 317.642 858.169 316.035C848.87 319.121 839.357 323.098 829.843 325.312C830.126 321.535 830.347 317.704 832.249 314.451Z"/><path fill="#FC0" d="M684.39 1211.7C696.123 1218.51 702.845 1220.23 713.81 1225.64C699.156 1223.22 695.003 1222.85 681.446 1216.57C682.131 1214.5 683.106 1213.44 684.39 1211.7Z"/><path fill="#FC0" d="M641.372 1195.8C644.722 1198.24 647.226 1200.97 650.123 1203.92C648.782 1205.87 647.117 1208.47 645.657 1210.25C643.766 1208.94 639.554 1205.11 637.629 1203.43C638.047 1199.13 637.341 1197.86 641.372 1195.8Z"/><path fill="#FC0" d="M457.406 1132.37C459.328 1136.49 462.752 1143.56 461.54 1148.04L460.625 1148.22C457.463 1145.27 455.842 1139.21 454.433 1135.07C455.995 1133.98 456.248 1133.93 457.406 1132.37Z"/><path fill="#FC0" d="M573.065 1221.95C578.914 1224.79 581.393 1227.99 585.602 1232.81L586.174 1232.91L586.202 1233.74L585.887 1234.34C581.459 1235.86 574.25 1225.84 573.065 1221.95Z"/><path fill="#FC0" d="M747.469 1187.49C754.221 1189.41 759.769 1190.82 766.052 1194.08C759.868 1193.24 753.662 1192.58 747.441 1192.1L747.469 1187.49Z"/><path fill="#FC0" d="M678.082 1198.28C683.486 1201.35 688.624 1204.38 694.293 1206.96C687.997 1205.7 683.51 1204.73 677.54 1202.26C677.806 1201.06 677.933 1199.53 678.082 1198.28Z"/><path fill="#FC0" d="M665.881 1221.93L667.961 1219.07C672.103 1221.27 672.954 1221.97 676.368 1225.08C672.417 1224.16 669.558 1223.65 665.881 1221.93Z"/></svg>